<svg width="41" height="41" viewBox="0 0 41 41" fill="none" xmlns="http://www.w3.org/2000/svg">
<path fill-rule="evenodd" clip-rule="evenodd" d="M20.5 35.875C22.5191 35.875 24.5184 35.4773 26.3838 34.7046C28.2491 33.932 29.9441 32.7995 31.3718 31.3718C32.7995 29.9441 33.932 28.2491 34.7046 26.3838C35.4773 24.5184 35.875 22.5191 35.875 20.5C35.875 18.4809 35.4773 16.4816 34.7046 14.6162C33.932 12.7509 32.7995 11.0559 31.3718 9.62823C29.9441 8.20053 28.2491 7.06802 26.3838 6.29535C24.5184 5.52269 22.5191 5.125 20.5 5.125C16.4223 5.125 12.5116 6.74486 9.62823 9.62823C6.74486 12.5116 5.125 16.4223 5.125 20.5C5.125 24.5777 6.74486 28.4884 9.62823 31.3718C12.5116 34.2551 16.4223 35.875 20.5 35.875ZM20.1037 26.7183L28.6453 16.4683L26.0213 14.2817L18.6755 23.095L14.8745 19.2922L12.4589 21.7078L17.5839 26.8328L18.9061 28.155L20.1037 26.7183Z" fill="#1E2D84"/>
</svg>
