<svg width="225" height="67" viewBox="0 0 225 67" fill="none" xmlns="http://www.w3.org/2000/svg">
<g filter="url(#filter0_d_613_264)">
<path d="M22.472 15.864H45.56V10.824H50.792V29.688H17.288V10.824H22.472V15.864ZM45.56 25.32V20.28H22.472V25.32H45.56ZM14.408 38.088V33.672H53.624V38.088H37.112V45.432H31.928V38.088H14.408ZM22.472 42.12V49.512H51.56V54.024H17.288V42.12H22.472ZM75.2221 10.584V16.584C75.2221 24.168 79.3981 28.008 84.9661 29.688V34.344C79.4941 33.096 74.9341 30.072 72.6781 26.424C70.6141 30.216 66.0061 33.528 60.3421 34.872V30.168C66.0541 28.44 70.0381 23.928 70.0381 16.584V10.584H75.2221ZM97.1101 35.448H91.8781V22.44H82.3741V17.976H91.8781V10.296H97.1101V35.448ZM91.8781 54.552V42.84H64.0381V38.28H97.1101V54.552H91.8781ZM137.429 15.384H121.973V10.824H142.613V14.376H151.925V10.296H157.157V31.608H151.925V27.288H141.461V22.872H151.925V18.792H142.037C139.877 27.384 132.101 30.792 120.917 31.704V27.192C130.901 26.424 137.381 22.632 137.429 15.384ZM129.845 46.248V50.04H157.685V54.264H124.613V42.12H151.925V38.232H124.613V34.056H157.157V46.248H129.845ZM185.235 28.536V15.672H168.483V11.064H190.419V27.768C190.419 31.704 190.035 36.456 189.363 39.384H184.227C184.851 36.456 185.235 32.184 185.235 28.536ZM173.283 46.872V27.048H178.467V46.872H188.163C192.051 46.872 195.075 46.104 196.851 44.616V10.296H202.083V28.056H208.899V32.616H202.083V53.832H196.851V48.936C195.075 50.568 191.523 51.384 187.155 51.384H167.043V46.872H173.283Z" fill="#B0B7E2"/>
</g>
<path d="M5 2.5H220C221.381 2.5 222.5 3.61929 222.5 5V62C222.5 63.3807 221.381 64.5 220 64.5H5C3.61929 64.5 2.5 63.3807 2.5 62V5C2.5 3.61929 3.61929 2.5 5 2.5Z" stroke="#B0B7E2" stroke-width="5"/>
<defs>
<filter id="filter0_d_613_264" x="10.408" y="10.296" width="202.491" height="54.256" filterUnits="userSpaceOnUse" color-interpolation-filters="sRGB">
<feFlood flood-opacity="0" result="BackgroundImageFix"/>
<feColorMatrix in="SourceAlpha" type="matrix" values="0 0 0 0 0 0 0 0 0 0 0 0 0 0 0 0 0 0 127 0" result="hardAlpha"/>
<feOffset dy="6"/>
<feGaussianBlur stdDeviation="2"/>
<feComposite in2="hardAlpha" operator="out"/>
<feColorMatrix type="matrix" values="0 0 0 0 0 0 0 0 0 0 0 0 0 0 0 0 0 0 0.25 0"/>
<feBlend mode="normal" in2="BackgroundImageFix" result="effect1_dropShadow_613_264"/>
<feBlend mode="normal" in="SourceGraphic" in2="effect1_dropShadow_613_264" result="shape"/>
</filter>
</defs>
</svg>
