<svg width="225" height="81" viewBox="0 0 225 81" fill="none" xmlns="http://www.w3.org/2000/svg">
<path d="M5 1.5H220C221.933 1.5 223.5 3.067 223.5 5V62C223.5 63.933 221.933 65.5 220 65.5H5C3.067 65.5 1.5 63.933 1.5 62V5C1.5 3.067 3.067 1.5 5 1.5Z" stroke="#F19B2A" stroke-width="3"/>
<g filter="url(#filter0_d_1049_261)">
<path d="M29.96 13.56H33.224V17.976C33.224 20.76 32.728 23.352 31.736 25.752C30.776 28.152 29.4 30.248 27.608 32.04C25.816 33.8 23.72 35.144 21.32 36.072L19.16 32.904C21.368 32.104 23.272 30.952 24.872 29.448C26.504 27.944 27.752 26.216 28.616 24.264C29.512 22.28 29.96 20.184 29.96 17.976V13.56ZM30.68 13.56H33.896V18.312C33.896 19.752 34.152 21.176 34.664 22.584C35.176 23.96 35.896 25.24 36.824 26.424C37.784 27.608 38.904 28.664 40.184 29.592C41.464 30.488 42.888 31.208 44.456 31.752L42.344 34.872C40.04 34.008 38.008 32.76 36.248 31.128C34.488 29.464 33.112 27.544 32.12 25.368C31.16 23.16 30.68 20.808 30.68 18.312V13.56ZM49.112 11.304H53.096V37.656H49.112V11.304ZM51.992 22.536H59.48V25.896H51.992V22.536ZM39.272 38.808C42.216 38.808 44.744 39.128 46.856 39.768C49 40.376 50.648 41.272 51.8 42.456C52.952 43.64 53.528 45.064 53.528 46.728C53.528 48.392 52.952 49.816 51.8 51C50.648 52.184 49 53.08 46.856 53.688C44.744 54.328 42.216 54.648 39.272 54.648C36.328 54.648 33.784 54.328 31.64 53.688C29.496 53.08 27.848 52.184 26.696 51C25.544 49.816 24.968 48.392 24.968 46.728C24.968 45.064 25.544 43.64 26.696 42.456C27.848 41.272 29.496 40.376 31.64 39.768C33.784 39.128 36.328 38.808 39.272 38.808ZM39.272 41.976C37.128 41.976 35.272 42.168 33.704 42.552C32.168 42.936 30.984 43.48 30.152 44.184C29.32 44.888 28.904 45.736 28.904 46.728C28.904 47.752 29.32 48.616 30.152 49.32C30.984 50.024 32.168 50.568 33.704 50.952C35.272 51.304 37.128 51.48 39.272 51.48C41.416 51.48 43.256 51.304 44.792 50.952C46.328 50.568 47.512 50.024 48.344 49.32C49.176 48.616 49.592 47.752 49.592 46.728C49.592 45.736 49.176 44.888 48.344 44.184C47.512 43.48 46.328 42.936 44.792 42.552C43.256 42.168 41.416 41.976 39.272 41.976ZM93.2683 11.304H97.2523V35.88H93.2683V11.304ZM96.1483 21.912H103.636V25.224H96.1483V21.912ZM65.5723 30.168H68.9323C71.9083 30.168 74.5163 30.136 76.7563 30.072C78.9963 29.976 81.0603 29.832 82.9483 29.64C84.8363 29.416 86.7403 29.112 88.6603 28.728L89.1403 31.944C87.1243 32.36 85.1403 32.68 83.1883 32.904C81.2683 33.128 79.1723 33.272 76.9003 33.336C74.6283 33.4 71.9722 33.432 68.9323 33.432H65.5723V30.168ZM65.5723 14.232H84.6283V17.448H69.5083V32.04H65.5723V14.232ZM69.9883 38.184H97.2523V54.12H69.9883V38.184ZM93.3163 41.4H73.8763V50.904H93.3163V41.4ZM126.493 23.496H156.013V26.76H126.493V23.496ZM126.493 12.264H130.429V24.84H126.493V12.264ZM121.213 32.616H160.477V35.832H121.213V32.616ZM138.829 25.32H142.812V34.056H138.829V25.32ZM125.773 40.248H155.581V54.744H151.597V43.512H125.773V40.248ZM184.953 12.264C188.089 12.264 190.793 12.6 193.065 13.272C195.369 13.912 197.129 14.84 198.345 16.056C199.593 17.272 200.217 18.76 200.217 20.52C200.217 22.216 199.593 23.688 198.345 24.936C197.129 26.152 195.369 27.08 193.065 27.72C190.793 28.36 188.089 28.68 184.953 28.68C181.849 28.68 179.145 28.36 176.841 27.72C174.569 27.08 172.809 26.152 171.561 24.936C170.313 23.688 169.689 22.216 169.689 20.52C169.689 18.76 170.313 17.272 171.561 16.056C172.809 14.84 174.569 13.912 176.841 13.272C179.145 12.6 181.849 12.264 184.953 12.264ZM184.953 15.432C182.681 15.432 180.697 15.64 179.001 16.056C177.337 16.44 176.041 17.016 175.113 17.784C174.217 18.52 173.769 19.432 173.769 20.52C173.769 21.544 174.217 22.44 175.113 23.208C176.041 23.944 177.337 24.52 179.001 24.936C180.697 25.32 182.681 25.512 184.953 25.512C187.257 25.512 189.241 25.32 190.905 24.936C192.601 24.52 193.897 23.944 194.793 23.208C195.689 22.44 196.137 21.544 196.137 20.52C196.137 19.432 195.689 18.52 194.793 17.784C193.897 17.016 192.601 16.44 190.905 16.056C189.241 15.64 187.257 15.432 184.953 15.432ZM170.169 39.864H199.785V54.168H170.169V39.864ZM195.897 43.08H174.057V50.904H195.897V43.08ZM165.369 32.376H204.585V35.64H165.369V32.376Z" fill="#F19B2A"/>
</g>
<defs>
<filter id="filter0_d_1049_261" x="15.1599" y="11.304" width="193.425" height="51.44" filterUnits="userSpaceOnUse" color-interpolation-filters="sRGB">
<feFlood flood-opacity="0" result="BackgroundImageFix"/>
<feColorMatrix in="SourceAlpha" type="matrix" values="0 0 0 0 0 0 0 0 0 0 0 0 0 0 0 0 0 0 127 0" result="hardAlpha"/>
<feOffset dy="4"/>
<feGaussianBlur stdDeviation="2"/>
<feComposite in2="hardAlpha" operator="out"/>
<feColorMatrix type="matrix" values="0 0 0 0 0 0 0 0 0 0 0 0 0 0 0 0 0 0 0.25 0"/>
<feBlend mode="normal" in2="BackgroundImageFix" result="effect1_dropShadow_1049_261"/>
<feBlend mode="normal" in="SourceGraphic" in2="effect1_dropShadow_1049_261" result="shape"/>
</filter>
</defs>
</svg>
