<svg width="225" height="67" viewBox="0 0 225 67" fill="none" xmlns="http://www.w3.org/2000/svg">
<path d="M1.5 5C1.5 3.067 3.067 1.5 5 1.5H220C221.933 1.5 223.5 3.067 223.5 5V62C223.5 63.933 221.933 65.5 220 65.5H5C3.067 65.5 1.5 63.933 1.5 62V5Z" fill="#EBC798" stroke="#472A00" stroke-width="3"/>
<mask id="path-2-outside-1_1121_261" maskUnits="userSpaceOnUse" x="15" y="10" width="195" height="47" fill="black">
<rect fill="white" x="15" y="10" width="195" height="47"/>
<path d="M30.8994 11.824V17.44C30.8994 24.832 35.6034 29.008 41.1234 30.736V34.192C35.5074 32.704 30.9474 29.248 28.9314 25.264C27.2514 29.344 22.6914 33.136 16.8354 34.72V31.216C22.4514 29.44 27.0594 24.64 27.0594 17.44V11.824H30.8994ZM52.4034 11.584V21.568H58.9794V24.976H52.4034V36.016H48.5634V11.584H52.4034ZM20.3394 46.72C20.3394 44.224 21.5394 42.256 23.5554 40.864C26.5314 38.752 31.2834 37.744 36.9474 37.744C42.6114 37.744 47.3634 38.752 50.2914 40.864C52.3074 42.256 53.5074 44.224 53.5074 46.72C53.5074 49.216 52.3074 51.184 50.2914 52.624C47.3634 54.688 42.6114 55.6 36.9474 55.6C31.2834 55.6 26.5314 54.688 23.5554 52.624C21.5394 51.184 20.3394 49.216 20.3394 46.72ZM24.2274 46.72C24.2274 48.064 24.9474 49.264 26.2914 50.176C28.3554 51.616 32.0994 52.288 36.9474 52.288C41.7474 52.288 45.4914 51.616 47.6514 50.176C48.9474 49.264 49.6194 48.064 49.6194 46.72C49.6194 45.328 48.9474 44.128 47.6514 43.264C45.4914 41.824 41.7474 41.104 36.9474 41.104C32.0994 41.104 28.3554 41.824 26.2914 43.264C24.9474 44.128 24.2274 45.328 24.2274 46.72ZM83.9855 32.848H64.4975V12.064H85.0895V15.472H68.3375V29.488H84.8975C89.1695 29.488 92.4335 28.816 94.6415 27.184V11.584H98.4815V21.568H105.058V24.976H98.4815V35.488H94.6415V30.352C92.4815 32.128 88.9295 32.848 83.9855 32.848ZM66.9935 55.024V38.944H98.4815V55.024H66.9935ZM94.6415 42.256H70.8335V51.712H94.6415V42.256ZM130.448 11.824V21.952H159.728V25.264H144.896V31.984H162.368V35.392H123.68V31.984H141.008V25.264H126.608V11.824H130.448ZM155.6 55.264V44.752H126.272V41.392H159.44V55.264H155.6ZM171.823 19.36C171.823 17.248 172.783 15.616 174.511 14.368C177.439 12.352 182.575 11.584 189.151 11.584C195.679 11.584 200.863 12.352 203.791 14.368C205.471 15.616 206.479 17.248 206.479 19.36C206.479 21.52 205.471 23.152 203.791 24.352C200.863 26.416 195.679 27.232 189.151 27.232C182.575 27.232 177.439 26.416 174.511 24.352C172.783 23.152 171.823 21.52 171.823 19.36ZM175.711 19.36C175.711 20.416 176.191 21.28 177.199 21.952C179.311 23.344 183.439 23.92 189.151 23.92C194.863 23.92 199.039 23.344 201.055 21.952C202.111 21.28 202.591 20.416 202.591 19.36C202.591 18.352 202.111 17.536 201.055 16.864C199.039 15.424 194.863 14.848 189.151 14.848C183.439 14.848 179.311 15.424 177.199 16.864C176.191 17.536 175.711 18.352 175.711 19.36ZM169.759 35.152V31.84H208.447V35.152H169.759ZM205.519 55.024H172.687V40.768H205.519V55.024ZM201.679 51.76V44.08H176.527V51.76H201.679Z"/>
</mask>
<path d="M30.8994 11.824V17.44C30.8994 24.832 35.6034 29.008 41.1234 30.736V34.192C35.5074 32.704 30.9474 29.248 28.9314 25.264C27.2514 29.344 22.6914 33.136 16.8354 34.72V31.216C22.4514 29.44 27.0594 24.64 27.0594 17.44V11.824H30.8994ZM52.4034 11.584V21.568H58.9794V24.976H52.4034V36.016H48.5634V11.584H52.4034ZM20.3394 46.72C20.3394 44.224 21.5394 42.256 23.5554 40.864C26.5314 38.752 31.2834 37.744 36.9474 37.744C42.6114 37.744 47.3634 38.752 50.2914 40.864C52.3074 42.256 53.5074 44.224 53.5074 46.72C53.5074 49.216 52.3074 51.184 50.2914 52.624C47.3634 54.688 42.6114 55.6 36.9474 55.6C31.2834 55.6 26.5314 54.688 23.5554 52.624C21.5394 51.184 20.3394 49.216 20.3394 46.72ZM24.2274 46.72C24.2274 48.064 24.9474 49.264 26.2914 50.176C28.3554 51.616 32.0994 52.288 36.9474 52.288C41.7474 52.288 45.4914 51.616 47.6514 50.176C48.9474 49.264 49.6194 48.064 49.6194 46.72C49.6194 45.328 48.9474 44.128 47.6514 43.264C45.4914 41.824 41.7474 41.104 36.9474 41.104C32.0994 41.104 28.3554 41.824 26.2914 43.264C24.9474 44.128 24.2274 45.328 24.2274 46.72ZM83.9855 32.848H64.4975V12.064H85.0895V15.472H68.3375V29.488H84.8975C89.1695 29.488 92.4335 28.816 94.6415 27.184V11.584H98.4815V21.568H105.058V24.976H98.4815V35.488H94.6415V30.352C92.4815 32.128 88.9295 32.848 83.9855 32.848ZM66.9935 55.024V38.944H98.4815V55.024H66.9935ZM94.6415 42.256H70.8335V51.712H94.6415V42.256ZM130.448 11.824V21.952H159.728V25.264H144.896V31.984H162.368V35.392H123.68V31.984H141.008V25.264H126.608V11.824H130.448ZM155.6 55.264V44.752H126.272V41.392H159.44V55.264H155.6ZM171.823 19.36C171.823 17.248 172.783 15.616 174.511 14.368C177.439 12.352 182.575 11.584 189.151 11.584C195.679 11.584 200.863 12.352 203.791 14.368C205.471 15.616 206.479 17.248 206.479 19.36C206.479 21.52 205.471 23.152 203.791 24.352C200.863 26.416 195.679 27.232 189.151 27.232C182.575 27.232 177.439 26.416 174.511 24.352C172.783 23.152 171.823 21.52 171.823 19.36ZM175.711 19.36C175.711 20.416 176.191 21.28 177.199 21.952C179.311 23.344 183.439 23.92 189.151 23.92C194.863 23.92 199.039 23.344 201.055 21.952C202.111 21.28 202.591 20.416 202.591 19.36C202.591 18.352 202.111 17.536 201.055 16.864C199.039 15.424 194.863 14.848 189.151 14.848C183.439 14.848 179.311 15.424 177.199 16.864C176.191 17.536 175.711 18.352 175.711 19.36ZM169.759 35.152V31.84H208.447V35.152H169.759ZM205.519 55.024H172.687V40.768H205.519V55.024ZM201.679 51.76V44.08H176.527V51.76H201.679Z" fill="#472A00"/>
<path d="M30.8994 11.824H31.8994V10.824H30.8994V11.824ZM41.1234 30.736H42.1234V30.0012L41.4221 29.7817L41.1234 30.736ZM41.1234 34.192L40.8673 35.1586L42.1234 35.4915V34.192H41.1234ZM28.9314 25.264L29.8236 24.8125L28.8379 22.8645L28.0067 24.8832L28.9314 25.264ZM16.8354 34.72H15.8354V36.0264L17.0965 35.6853L16.8354 34.72ZM16.8354 31.216L16.5339 30.2625L15.8354 30.4834V31.216H16.8354ZM27.0594 11.824V10.824H26.0594V11.824H27.0594ZM52.4034 11.584H53.4034V10.584H52.4034V11.584ZM52.4034 21.568H51.4034V22.568H52.4034V21.568ZM58.9794 21.568H59.9794V20.568H58.9794V21.568ZM58.9794 24.976V25.976H59.9794V24.976H58.9794ZM52.4034 24.976V23.976H51.4034V24.976H52.4034ZM52.4034 36.016V37.016H53.4034V36.016H52.4034ZM48.5634 36.016H47.5634V37.016H48.5634V36.016ZM48.5634 11.584V10.584H47.5634V11.584H48.5634ZM23.5554 40.864L24.1236 41.687L24.1341 41.6795L23.5554 40.864ZM50.2914 40.864L49.7064 41.675L49.7147 41.681L49.7232 41.6869L50.2914 40.864ZM50.2914 52.624L50.8675 53.4414L50.8726 53.4377L50.2914 52.624ZM23.5554 52.624L22.9741 53.4378L22.9855 53.4457L23.5554 52.624ZM26.2914 50.176L26.8636 49.3558L26.8529 49.3485L26.2914 50.176ZM47.6514 50.176L48.2061 51.008L48.2166 51.0011L48.2269 50.9938L47.6514 50.176ZM47.6514 43.264L48.2061 42.4319L47.6514 43.264ZM26.2914 43.264L26.8321 44.1052L26.848 44.0949L26.8636 44.0841L26.2914 43.264ZM29.8994 11.824V17.44H31.8994V11.824H29.8994ZM29.8994 17.44C29.8994 21.3648 31.1544 24.4895 33.1811 26.8616C35.1959 29.2198 37.929 30.7839 40.8246 31.6903L41.4221 29.7817C38.7978 28.9601 36.4188 27.5722 34.7017 25.5624C32.9963 23.5665 31.8994 20.9072 31.8994 17.44H29.8994ZM40.1234 30.736V34.192H42.1234V30.736H40.1234ZM41.3795 33.2254C35.974 31.7931 31.6832 28.4872 29.8236 24.8125L28.0391 25.7155C30.2116 30.0088 35.0407 33.6149 40.8673 35.1586L41.3795 33.2254ZM28.0067 24.8832C26.472 28.6103 22.206 32.2313 16.5743 33.7547L17.0965 35.6853C23.1767 34.0407 28.0307 30.0777 29.8561 25.6447L28.0067 24.8832ZM17.8354 34.72V31.216H15.8354V34.72H17.8354ZM17.1369 32.1695C23.1014 30.2832 28.0594 25.1428 28.0594 17.44H26.0594C26.0594 24.1372 21.8013 28.5968 16.5339 30.2625L17.1369 32.1695ZM28.0594 17.44V11.824H26.0594V17.44H28.0594ZM27.0594 12.824H30.8994V10.824H27.0594V12.824ZM51.4034 11.584V21.568H53.4034V11.584H51.4034ZM52.4034 22.568H58.9794V20.568H52.4034V22.568ZM57.9794 21.568V24.976H59.9794V21.568H57.9794ZM58.9794 23.976H52.4034V25.976H58.9794V23.976ZM51.4034 24.976V36.016H53.4034V24.976H51.4034ZM52.4034 35.016H48.5634V37.016H52.4034V35.016ZM49.5634 36.016V11.584H47.5634V36.016H49.5634ZM48.5634 12.584H52.4034V10.584H48.5634V12.584ZM21.3394 46.72C21.3394 44.5973 22.3389 42.9191 24.1236 41.6869L22.9872 40.0411C20.7398 41.5929 19.3394 43.8507 19.3394 46.72H21.3394ZM24.1341 41.6795C26.8571 39.747 31.3563 38.744 36.9474 38.744V36.744C31.2105 36.744 26.2056 37.7569 22.9766 40.0485L24.1341 41.6795ZM36.9474 38.744C42.5416 38.744 47.0351 39.7482 49.7064 41.675L50.8764 40.053C47.6917 37.7558 42.6812 36.744 36.9474 36.744V38.744ZM49.7232 41.6869C51.5078 42.9191 52.5074 44.5973 52.5074 46.72H54.5074C54.5074 43.8507 53.1069 41.5929 50.8596 40.0411L49.7232 41.6869ZM52.5074 46.72C52.5074 48.841 51.5087 50.5256 49.7101 51.8103L50.8726 53.4377C53.106 51.8424 54.5074 49.591 54.5074 46.72H52.5074ZM49.7152 51.8067C47.0483 53.6866 42.5583 54.6 36.9474 54.6V56.6C42.6644 56.6 47.6784 55.6894 50.8675 53.4413L49.7152 51.8067ZM36.9474 54.6C31.3397 54.6 26.8439 53.6878 24.1253 51.8023L22.9855 53.4457C26.2189 55.6882 31.2271 56.6 36.9474 56.6V54.6ZM24.1366 51.8103C22.338 50.5256 21.3394 48.841 21.3394 46.72H19.3394C19.3394 49.591 20.7407 51.8424 22.9741 53.4377L24.1366 51.8103ZM23.2274 46.72C23.2274 48.4695 24.1791 49.9512 25.7299 51.0035L26.8529 49.3485C25.7156 48.5768 25.2274 47.6585 25.2274 46.72H23.2274ZM25.7192 50.9961C26.9113 51.8278 28.5155 52.3923 30.3856 52.7538C32.2667 53.1175 34.4819 53.288 36.9474 53.288V51.288C34.5648 51.288 32.484 51.1225 30.7652 50.7902C29.0353 50.4557 27.7355 49.9642 26.8636 49.3559L25.7192 50.9961ZM36.9474 53.288C41.776 53.288 45.7824 52.6238 48.2061 51.008L47.0967 49.3439C45.2003 50.6082 41.7188 51.288 36.9474 51.288V53.288ZM48.2269 50.9938C49.7419 49.9277 50.6194 48.4431 50.6194 46.72H48.6194C48.6194 47.685 48.1528 48.6003 47.0759 49.3582L48.2269 50.9938ZM50.6194 46.72C50.6194 44.9576 49.7489 43.4605 48.2061 42.4319L47.0967 44.0961C48.1459 44.7955 48.6194 45.6984 48.6194 46.72H50.6194ZM48.2061 42.4319C45.7874 40.8195 41.7878 40.104 36.9474 40.104V42.104C41.7069 42.104 45.1954 42.8285 47.0967 44.0961L48.2061 42.4319ZM36.9474 40.104C32.0698 40.104 28.0527 40.8158 25.7192 42.4439L26.8636 44.0841C28.658 42.8322 32.129 42.104 36.9474 42.104V40.104ZM25.7506 42.4228C24.1722 43.4375 23.2274 44.9304 23.2274 46.72H25.2274C25.2274 45.7256 25.7225 44.8185 26.8321 44.1052L25.7506 42.4228ZM64.4975 32.848H63.4975V33.848H64.4975V32.848ZM64.4975 12.064V11.064H63.4975V12.064H64.4975ZM85.0895 12.064H86.0895V11.064H85.0895V12.064ZM85.0895 15.472V16.472H86.0895V15.472H85.0895ZM68.3375 15.472V14.472H67.3375V15.472H68.3375ZM68.3375 29.488H67.3375V30.488H68.3375V29.488ZM94.6415 27.184L95.2359 27.9882L95.6415 27.6884V27.184H94.6415ZM94.6415 11.584V10.584H93.6415V11.584H94.6415ZM98.4815 11.584H99.4815V10.584H98.4815V11.584ZM98.4815 21.568H97.4815V22.568H98.4815V21.568ZM105.058 21.568H106.058V20.568H105.058V21.568ZM105.058 24.976V25.976H106.058V24.976H105.058ZM98.4815 24.976V23.976H97.4815V24.976H98.4815ZM98.4815 35.488V36.488H99.4815V35.488H98.4815ZM94.6415 35.488H93.6415V36.488H94.6415V35.488ZM94.6415 30.352H95.6415V28.2352L94.0064 29.5796L94.6415 30.352ZM66.9935 55.024H65.9935V56.024H66.9935V55.024ZM66.9935 38.944V37.944H65.9935V38.944H66.9935ZM98.4815 38.944H99.4815V37.944H98.4815V38.944ZM98.4815 55.024V56.024H99.4815V55.024H98.4815ZM94.6415 42.256H95.6415V41.256H94.6415V42.256ZM70.8335 42.256V41.256H69.8335V42.256H70.8335ZM70.8335 51.712H69.8335V52.712H70.8335V51.712ZM94.6415 51.712V52.712H95.6415V51.712H94.6415ZM83.9855 31.848H64.4975V33.848H83.9855V31.848ZM65.4975 32.848V12.064H63.4975V32.848H65.4975ZM64.4975 13.064H85.0895V11.064H64.4975V13.064ZM84.0895 12.064V15.472H86.0895V12.064H84.0895ZM85.0895 14.472H68.3375V16.472H85.0895V14.472ZM67.3375 15.472V29.488H69.3375V15.472H67.3375ZM68.3375 30.488H84.8975V28.488H68.3375V30.488ZM84.8975 30.488C89.2341 30.488 92.7655 29.8141 95.2359 27.9882L94.0471 26.3798C92.1015 27.8179 89.1049 28.488 84.8975 28.488V30.488ZM95.6415 27.184V11.584H93.6415V27.184H95.6415ZM94.6415 12.584H98.4815V10.584H94.6415V12.584ZM97.4815 11.584V21.568H99.4815V11.584H97.4815ZM98.4815 22.568H105.058V20.568H98.4815V22.568ZM104.058 21.568V24.976H106.058V21.568H104.058ZM105.058 23.976H98.4815V25.976H105.058V23.976ZM97.4815 24.976V35.488H99.4815V24.976H97.4815ZM98.4815 34.488H94.6415V36.488H98.4815V34.488ZM95.6415 35.488V30.352H93.6415V35.488H95.6415ZM94.0064 29.5796C92.1354 31.1179 88.8986 31.848 83.9855 31.848V33.848C88.9604 33.848 92.8276 33.1381 95.2766 31.1244L94.0064 29.5796ZM67.9935 55.024V38.944H65.9935V55.024H67.9935ZM66.9935 39.944H98.4815V37.944H66.9935V39.944ZM97.4815 38.944V55.024H99.4815V38.944H97.4815ZM98.4815 54.024H66.9935V56.024H98.4815V54.024ZM94.6415 41.256H70.8335V43.256H94.6415V41.256ZM69.8335 42.256V51.712H71.8335V42.256H69.8335ZM70.8335 52.712H94.6415V50.712H70.8335V52.712ZM95.6415 51.712V42.256H93.6415V51.712H95.6415ZM130.448 11.824H131.448V10.824H130.448V11.824ZM130.448 21.952H129.448V22.952H130.448V21.952ZM159.728 21.952H160.728V20.952H159.728V21.952ZM159.728 25.264V26.264H160.728V25.264H159.728ZM144.896 25.264V24.264H143.896V25.264H144.896ZM144.896 31.984H143.896V32.984H144.896V31.984ZM162.368 31.984H163.368V30.984H162.368V31.984ZM162.368 35.392V36.392H163.368V35.392H162.368ZM123.68 35.392H122.68V36.392H123.68V35.392ZM123.68 31.984V30.984H122.68V31.984H123.68ZM141.008 31.984V32.984H142.008V31.984H141.008ZM141.008 25.264H142.008V24.264H141.008V25.264ZM126.608 25.264H125.608V26.264H126.608V25.264ZM126.608 11.824V10.824H125.608V11.824H126.608ZM155.6 55.264H154.6V56.264H155.6V55.264ZM155.6 44.752H156.6V43.752H155.6V44.752ZM126.272 44.752H125.272V45.752H126.272V44.752ZM126.272 41.392V40.392H125.272V41.392H126.272ZM159.44 41.392H160.44V40.392H159.44V41.392ZM159.44 55.264V56.264H160.44V55.264H159.44ZM129.448 11.824V21.952H131.448V11.824H129.448ZM130.448 22.952H159.728V20.952H130.448V22.952ZM158.728 21.952V25.264H160.728V21.952H158.728ZM159.728 24.264H144.896V26.264H159.728V24.264ZM143.896 25.264V31.984H145.896V25.264H143.896ZM144.896 32.984H162.368V30.984H144.896V32.984ZM161.368 31.984V35.392H163.368V31.984H161.368ZM162.368 34.392H123.68V36.392H162.368V34.392ZM124.68 35.392V31.984H122.68V35.392H124.68ZM123.68 32.984H141.008V30.984H123.68V32.984ZM142.008 31.984V25.264H140.008V31.984H142.008ZM141.008 24.264H126.608V26.264H141.008V24.264ZM127.608 25.264V11.824H125.608V25.264H127.608ZM126.608 12.824H130.448V10.824H126.608V12.824ZM156.6 55.264V44.752H154.6V55.264H156.6ZM155.6 43.752H126.272V45.752H155.6V43.752ZM127.272 44.752V41.392H125.272V44.752H127.272ZM126.272 42.392H159.44V40.392H126.272V42.392ZM158.44 41.392V55.264H160.44V41.392H158.44ZM159.44 54.264H155.6V56.264H159.44V54.264ZM174.51 14.368L173.943 13.5444L173.934 13.5507L173.925 13.5573L174.51 14.368ZM203.79 14.368L204.387 13.5653L204.372 13.5545L204.358 13.5444L203.79 14.368ZM203.79 24.352L204.367 25.1694L204.372 25.1657L203.79 24.352ZM174.51 24.352L175.087 23.5346L175.081 23.5306L174.51 24.352ZM177.199 21.952L176.644 22.7841L176.648 22.787L177.199 21.952ZM201.055 21.952L200.518 21.1083L200.502 21.1184L200.486 21.1291L201.055 21.952ZM201.055 16.864L200.473 17.6777L200.495 17.6933L200.518 17.7077L201.055 16.864ZM177.199 16.864L177.753 17.6961L177.762 17.6902L177.199 16.864ZM169.758 35.152H168.758V36.152H169.758V35.152ZM169.758 31.84V30.84H168.758V31.84H169.758ZM208.447 31.84H209.447V30.84H208.447V31.84ZM208.447 35.152V36.152H209.447V35.152H208.447ZM205.518 55.024V56.024H206.518V55.024H205.518ZM172.686 55.024H171.686V56.024H172.686V55.024ZM172.686 40.768V39.768H171.686V40.768H172.686ZM205.518 40.768H206.518V39.768H205.518V40.768ZM201.678 51.76V52.76H202.678V51.76H201.678ZM201.678 44.08H202.678V43.08H201.678V44.08ZM176.527 44.08V43.08H175.527V44.08H176.527ZM176.527 51.76H175.527V52.76H176.527V51.76ZM172.822 19.36C172.822 17.6138 173.59 16.2664 175.096 15.1787L173.925 13.5573C171.975 14.9656 170.822 16.8822 170.822 19.36H172.822ZM175.078 15.1916C176.377 14.297 178.237 13.6358 180.639 13.2042C183.032 12.7745 185.896 12.584 189.15 12.584V10.584C185.829 10.584 182.837 10.7775 180.286 11.2357C177.744 11.6922 175.572 12.423 173.943 13.5444L175.078 15.1916ZM189.15 12.584C192.381 12.584 195.245 12.7745 197.644 13.2043C200.054 13.6362 201.925 14.2977 203.223 15.1916L204.358 13.5444C202.728 12.4223 200.543 11.6918 197.997 11.2357C195.44 10.7775 192.448 10.584 189.15 10.584V12.584ZM203.194 15.1707C204.674 16.27 205.479 17.6258 205.479 19.36H207.479C207.479 16.8702 206.267 14.962 204.387 13.5653L203.194 15.1707ZM205.479 19.36C205.479 21.1482 204.669 22.4957 203.209 23.5383L204.372 25.1657C206.272 23.8083 207.479 21.8918 207.479 19.36H205.479ZM203.214 23.5347C201.915 24.4505 200.045 25.1341 197.637 25.5829C195.24 26.0298 192.378 26.232 189.15 26.232V28.232C192.451 28.232 195.445 28.0262 198.004 27.5491C200.552 27.0739 202.738 26.3175 204.367 25.1693L203.214 23.5347ZM189.15 26.232C185.898 26.232 183.037 26.0298 180.646 25.583C178.246 25.1345 176.387 24.4512 175.087 23.5347L173.934 25.1693C175.562 26.3168 177.735 27.0735 180.279 27.549C182.832 28.0262 185.827 28.232 189.15 28.232V26.232ZM175.081 23.5306C173.595 22.4987 172.822 21.1607 172.822 19.36H170.822C170.822 21.8793 171.97 23.8053 173.94 25.1734L175.081 23.5306ZM174.71 19.36C174.71 20.7891 175.391 21.9491 176.644 22.784L177.753 21.1199C176.99 20.6109 176.71 20.0429 176.71 19.36H174.71ZM176.648 22.787C177.88 23.5987 179.605 24.1193 181.668 24.4457C183.75 24.775 186.267 24.92 189.15 24.92V22.92C186.322 22.92 183.919 22.777 181.981 22.4703C180.024 22.1607 178.629 21.6973 177.749 21.117L176.648 22.787ZM189.15 24.92C192.034 24.92 194.563 24.775 196.645 24.4457C198.703 24.1201 200.429 23.5991 201.623 22.7749L200.486 21.1291C199.664 21.6969 198.294 22.1599 196.332 22.4703C194.394 22.777 191.979 22.92 189.15 22.92V24.92ZM201.591 22.7957C202.902 21.9619 203.59 20.7966 203.59 19.36H201.59C201.59 20.0354 201.319 20.5981 200.518 21.1083L201.591 22.7957ZM203.59 19.36C203.59 17.9448 202.876 16.8379 201.591 16.0203L200.518 17.7077C201.345 18.2341 201.59 18.7592 201.59 19.36H203.59ZM201.636 16.0503C200.439 15.1954 198.708 14.6608 196.648 14.3287C194.564 13.9929 192.034 13.848 189.15 13.848V15.848C191.979 15.848 194.393 15.9911 196.329 16.3033C198.289 16.6192 199.654 17.0926 200.473 17.6777L201.636 16.0503ZM189.15 13.848C186.267 13.848 183.749 13.9929 181.665 14.3287C179.6 14.6616 177.87 15.1958 176.635 16.0378L177.762 17.6902C178.639 17.0922 180.029 16.6184 181.984 16.3033C183.92 15.991 186.322 15.848 189.15 15.848V13.848ZM176.644 16.0319C175.416 16.8503 174.71 17.9528 174.71 19.36H176.71C176.71 18.7512 176.965 18.2217 177.753 17.696L176.644 16.0319ZM170.758 35.152V31.84H168.758V35.152H170.758ZM169.758 32.84H208.447V30.84H169.758V32.84ZM207.447 31.84V35.152H209.447V31.84H207.447ZM208.447 34.152H169.758V36.152H208.447V34.152ZM205.518 54.024H172.686V56.024H205.518V54.024ZM173.686 55.024V40.768H171.686V55.024H173.686ZM172.686 41.768H205.518V39.768H172.686V41.768ZM204.518 40.768V55.024H206.518V40.768H204.518ZM202.678 51.76V44.08H200.678V51.76H202.678ZM201.678 43.08H176.527V45.08H201.678V43.08ZM175.527 44.08V51.76H177.527V44.08H175.527ZM176.527 52.76H201.678V50.76H176.527V52.76Z" fill="#472A00" mask="url(#path-2-outside-1_1121_261)"/>
</svg>
