<svg width="38" height="38" viewBox="0 0 38 38" fill="none" xmlns="http://www.w3.org/2000/svg">
<path d="M18.8923 14.2184L16.2735 16.568C16.6197 17.7529 17.1033 18.8933 17.7143 19.9659C18.3518 21.0306 19.1198 22.0114 20.0007 22.8855L23.3922 21.8405C25.2922 21.2547 27.3663 21.8564 28.6298 23.3605L30.5615 25.6595C31.3436 26.5824 31.7357 27.7736 31.6547 28.9806C31.5737 30.1876 31.026 31.3157 30.1277 32.1259C26.9768 35.0012 22.1255 35.9734 18.4933 33.1202C15.2997 30.6082 12.5984 27.5269 10.526 24.0319C8.44835 20.5541 7.05732 16.7099 6.42835 12.7079C5.73168 8.20486 9.02818 4.60119 13.1385 3.37252C15.5895 2.63786 18.2052 3.89819 19.1045 6.24786L20.1653 9.01869C20.862 10.8427 20.3617 12.901 18.8923 14.2184Z" fill="#4B4B4B"/>
</svg>
