<svg width="225" height="67" viewBox="0 0 225 67" fill="none" xmlns="http://www.w3.org/2000/svg">
<path d="M35.992 23.056C33.064 27.952 26.44 31.696 17.416 33.088V28.48C27.016 26.704 33.352 21.856 33.352 13.408V11.584H38.536V13.408C38.536 21.856 44.968 26.656 54.568 28.48V33.088C45.592 31.696 38.92 27.952 35.992 23.056ZM16.696 43.84V39.232H55.336V43.84H38.536V55.552H33.352V43.84H16.696ZM63.3501 22.24C63.3501 18.304 64.8381 15.328 67.2381 13.408C69.2061 11.872 71.7981 11.008 74.7741 11.008C77.7981 11.008 80.3901 11.872 82.3101 13.408C84.2781 14.944 85.5741 17.152 86.0061 19.984H93.8781V11.296H99.1101V34.288H93.8781V24.448H86.0541C85.6221 27.328 84.2781 29.584 82.3101 31.072C80.3901 32.656 77.7981 33.52 74.7741 33.52C71.7981 33.52 69.2061 32.656 67.2381 31.072C64.8381 29.2 63.3501 26.224 63.3501 22.24ZM68.4381 22.24C68.4381 24.496 69.2061 26.368 70.5501 27.472C71.6061 28.48 73.0941 29.008 74.7741 29.008C76.4541 29.008 77.9421 28.48 79.0461 27.472C80.3901 26.368 81.1101 24.496 81.1101 22.24C81.1101 19.984 80.3901 18.208 79.0461 17.008C77.9421 16.048 76.4541 15.52 74.7741 15.52C73.0941 15.52 71.6061 16.048 70.5501 17.008C69.2061 18.208 68.4381 19.984 68.4381 22.24ZM93.8781 41.68V36.592H99.1101V55.264H66.5661V36.592H71.7981V41.68H93.8781ZM93.8781 46.144H71.7981V50.848H93.8781V46.144ZM130.597 11.584V21.232H159.157V25.744H144.661V31.36H161.749V35.92H122.533V31.36H139.477V25.744H125.413V11.584H130.597ZM153.685 55.552V45.424H125.125V40.912H158.917V55.552H153.685ZM170.675 19.504C170.675 17.2 171.635 15.472 173.411 14.176C176.483 11.968 181.811 11.248 188.291 11.248C194.723 11.248 200.099 11.968 203.123 14.176C204.899 15.472 205.859 17.2 205.859 19.504C205.859 21.856 204.899 23.584 203.123 24.832C200.099 27.04 194.723 27.808 188.291 27.808C181.811 27.808 176.483 27.04 173.411 24.832C171.635 23.584 170.675 21.856 170.675 19.504ZM175.907 19.504C175.907 20.368 176.339 21.088 177.107 21.616C178.979 22.912 183.011 23.392 188.291 23.392C193.571 23.392 197.555 22.912 199.427 21.616C200.243 21.088 200.675 20.368 200.675 19.504C200.675 18.64 200.243 17.968 199.427 17.44C197.555 16.144 193.571 15.664 188.291 15.664C183.011 15.664 178.979 16.144 177.107 17.44C176.339 17.968 175.907 18.64 175.907 19.504ZM168.611 35.728V31.312H207.827V35.728H168.611ZM204.995 55.264H171.491V40.192H204.995V55.264ZM199.763 50.896V44.608H176.675V50.896H199.763Z" fill="#F19B2A"/>
<path d="M1.5 5C1.5 3.067 3.067 1.5 5 1.5H220C221.933 1.5 223.5 3.067 223.5 5V62C223.5 63.933 221.933 65.5 220 65.5H5C3.067 65.5 1.5 63.933 1.5 62V5Z" stroke="#F19B2A" stroke-width="3"/>
</svg>
