<svg width="216" height="46" viewBox="0 0 216 46" fill="none" xmlns="http://www.w3.org/2000/svg">
<path d="M20.5029 24.416C20.0229 32.864 17.5269 39.152 10.7589 39.152C2.98288 39.152 0.918875 31.088 0.918875 21.2C0.918875 11.36 3.17488 3.248 10.7589 3.248C17.6229 3.248 19.8789 9.392 20.4069 16.832H22.8069C22.7589 12.464 22.5669 8.48 22.3269 5.792C22.0869 3.776 23.7189 1.856 25.7349 1.664C27.8469 1.472 29.8149 2.912 30.1029 4.928C30.9669 11.504 30.6309 33.728 30.1029 39.056C29.8149 40.976 27.7989 42.656 25.9269 42.368C23.7669 42.032 22.2789 40.256 22.3269 38.336C22.5669 35.168 22.7589 29.936 22.8069 24.416H20.5029ZM13.3029 21.296C13.3029 13.664 12.5829 10.928 10.7109 10.928C8.88688 10.928 8.21488 13.472 8.21488 21.344C8.21488 28.64 8.88688 31.472 10.7109 31.472C12.6789 31.472 13.3029 28.64 13.3029 21.296ZM39.3669 4.688C40.2309 11.264 39.8949 33.968 39.3669 39.296C39.0789 41.216 37.1589 42.8 35.1429 42.608C33.0789 42.416 31.5429 40.496 31.5909 38.576C32.2149 31.28 32.3589 12.944 31.5909 5.552C31.3509 3.536 33.1269 1.568 34.9989 1.424C37.1109 1.28 39.0789 2.672 39.3669 4.688ZM56.7335 13.424C56.7815 14.048 57.1655 14.528 57.9335 14.672C59.6135 14.96 62.1575 15.2 65.7095 15.2C69.5975 15.2 73.2455 14.624 76.5575 13.76C78.6215 13.232 80.8295 13.856 81.4055 16.064C81.8855 17.84 81.2135 19.808 79.5335 20.624C75.7895 22.448 69.7895 22.784 65.3255 22.832C60.8615 22.832 55.7255 22.4 52.8935 21.296C51.5015 20.72 49.6295 19.328 49.1975 17.168C48.5735 13.76 48.6695 9.2 49.1015 5.84C49.3895 3.632 51.4055 2 52.7015 2H77.3735C79.2935 2 80.3975 3.728 80.3975 5.696C80.3975 7.328 79.4855 9.536 77.3735 9.536H57.8855C57.1655 9.536 56.7815 9.872 56.7335 10.256C56.6375 11.072 56.6375 12.368 56.7335 13.424ZM48.0935 32.768C46.2695 32.48 44.3495 31.136 44.6855 28.448C44.9735 26 47.2775 24.896 49.0055 25.136C56.4455 25.856 73.6775 26 81.0215 25.136C82.9415 24.896 85.1495 25.952 85.3895 28.592C85.6295 31.232 83.6615 32.48 81.9815 32.768C80.8295 32.912 78.9575 33.056 76.7495 33.152V42.176C76.7495 43.952 74.4935 45.056 72.6695 45.056C70.8935 45.056 68.6855 43.952 68.6855 42.176V33.344C66.4295 33.392 64.1255 33.392 61.8695 33.392V42.176C61.8695 43.952 59.6135 45.056 57.7895 45.056C56.0135 45.056 53.8055 43.952 53.8055 42.176V33.2C51.4055 33.104 49.4375 32.96 48.0935 32.768Z" fill="#576096"/>
<path d="M96.2083 29.6C94.4803 30.032 92.0323 29.552 91.2643 27.056C90.6403 24.992 91.6003 23.024 93.6643 22.304C99.9043 20.048 103.744 16.976 103.744 8.96V6.032C103.744 4.688 105.28 3.152 107.584 3.152C109.84 3.152 111.808 4.112 111.808 6.032V9.776C111.808 20.672 104.08 27.152 96.2083 29.6ZM116.848 18.176L123.952 22.64C125.296 23.504 126.208 25.808 124.72 27.968C123.376 29.936 121.024 29.936 119.248 28.832L112.192 24.512C110.8 23.648 110.32 21.104 111.616 19.28C112.912 17.456 115.504 17.312 116.848 18.176ZM91.3123 40.208C89.4883 39.92 87.6643 38.576 87.9043 35.888C88.1443 33.2 90.4963 32.336 92.2243 32.576C99.6643 33.296 116.896 33.44 124.24 32.576C126.16 32.336 128.416 33.2 128.608 36.032C128.8 38.72 126.88 39.92 125.2 40.208C119.488 40.928 97.9363 41.12 91.3123 40.208ZM153.011 37.424C150.899 38.48 147.827 39.2 144.659 39.152C141.251 39.152 138.227 38.288 136.499 37.424C134.771 36.512 133.763 34.688 133.475 32.912C132.707 28.304 132.947 11.168 133.379 7.904C133.763 5.744 135.971 4.4 137.363 4.4H152.099C153.491 4.4 155.699 5.744 156.035 7.856C156.611 11.264 156.803 28.352 156.035 32.864C155.843 34.304 154.979 36.416 153.011 37.424ZM148.451 12.704C148.451 12.368 148.403 11.792 147.443 11.792H142.115C141.107 11.792 141.059 12.416 141.011 12.752C140.723 17.12 140.579 25.952 140.963 30.224C141.011 30.896 141.299 31.28 141.923 31.424C142.499 31.568 143.267 31.664 144.803 31.664C145.811 31.664 146.867 31.616 147.443 31.472C148.115 31.28 148.403 30.848 148.451 30.128C148.883 25.52 148.739 16.688 148.451 12.704ZM171.155 23.504H168.083C168.035 30.32 167.795 36.752 167.555 39.296C167.267 41.216 165.251 42.8 163.187 42.608C160.835 42.368 159.443 40.496 159.539 38.576C160.163 31.28 160.259 12.944 159.539 5.552C159.251 3.536 161.123 1.616 163.043 1.424C165.251 1.184 167.267 2.672 167.555 4.688C167.843 6.992 168.035 11.168 168.083 15.92H171.155C172.835 15.92 174.227 17.84 174.227 19.712C174.227 21.344 173.123 23.504 171.155 23.504ZM176.138 11.216C176.138 4.496 182.09 0.847998 189.146 0.847998C196.154 0.847998 202.154 4.496 202.154 11.216C202.154 17.936 196.25 21.584 189.146 21.584C182.09 21.584 176.138 17.936 176.138 11.216ZM184.154 11.264C184.154 13.376 185.93 14.912 189.098 14.912C192.314 14.912 194.138 13.28 194.138 11.264C194.138 9.152 192.314 7.52 189.098 7.52C185.93 7.52 184.154 9.056 184.154 11.264ZM214.058 4.736C214.682 10.256 214.586 13.472 214.058 18.944C213.866 20.96 212.042 22.64 209.69 22.352C207.29 22.064 205.85 20.24 206.042 18.32C206.522 14.048 206.378 8.768 206.042 5.408C205.85 3.536 207.194 1.712 209.546 1.424C211.898 1.136 213.77 2.672 214.058 4.736ZM188.33 36.512V37.376C188.474 37.808 188.666 37.952 189.194 38.096C191.21 38.528 195.194 38.768 198.698 38.768C202.634 38.768 207.386 38.192 210.698 37.424C212.858 36.944 214.346 37.664 214.778 39.296C215.21 40.832 214.25 42.272 212.618 42.848C208.778 44.24 201.866 44.48 197.402 44.528C193.034 44.528 187.322 44.288 184.442 43.136C183.05 42.56 181.178 40.976 180.746 38.864C180.266 36.608 180.602 34.592 180.794 33.584C181.13 31.664 182.522 30.752 183.53 30.752H206.234V29.744C206.186 29.36 205.898 29.216 205.226 29.216H183.626C182.666 29.216 181.226 28.304 181.226 26.288C181.226 24.656 182.426 23.456 183.53 23.456H210.266C211.61 23.456 213.578 24.848 213.962 27.728C214.25 29.984 214.106 32 213.77 33.632C213.29 35.888 211.706 36.512 210.266 36.512H188.33Z" fill="#F19B2A"/>
</svg>
